<?xml version="1.0" encoding="utf-8"?>
<!-- Generator: Adobe Illustrator 17.0.0, SVG Export Plug-In . SVG Version: 6.00 Build 0)  -->
<!DOCTYPE svg PUBLIC "-//W3C//DTD SVG 1.1//EN" "http://www.w3.org/Graphics/SVG/1.1/DTD/svg11.dtd">
<svg version="1.1" id="Layer_1" xmlns="http://www.w3.org/2000/svg" xmlns:xlink="http://www.w3.org/1999/xlink" x="0px" y="0px"
	 width="496.864px" height="496.864px" viewBox="0 0 496.864 496.864" enable-background="new 0 0 496.864 496.864"
	 xml:space="preserve">
<g>
	<path fill="#FD8F8F" d="M423.958,147.728l43.695-18.596C410.762,24.299,286.848-25.636,173.162,10.471l18.596,43.695
		C281.284,27.94,377.632,66.756,423.958,147.728z"/>
	<path fill="#FD8F8F" d="M349.134,423.953l18.598,43.701c104.842-56.889,154.773-180.808,118.661-294.492l-43.695,18.596
		C468.931,281.282,430.105,377.627,349.134,423.953z"/>
	<path fill="#FD8F8F" d="M72.911,349.134L29.21,367.732C86.105,472.571,210.016,522.5,323.702,486.393l-18.598-43.701
		C215.581,468.931,119.238,430.106,72.911,349.134z"/>
	<path fill="#FD8F8F" d="M147.728,72.906L129.132,29.21C24.293,86.105-25.636,210.016,10.471,323.702l43.701-18.598
		C27.939,215.58,66.755,119.232,147.728,72.906z"/>
</g>
<text transform="matrix(1 0 0 1 671.9998 672.0007)" font-family="'HelveticaNeue-Bold'" font-size="32">Created by Jonathan Li</text>
<text transform="matrix(1 0 0 1 671.9998 704.0007)" font-family="'HelveticaNeue-Bold'" font-size="32">from the Noun Project</text>
</svg>
