<?xml version="1.0" encoding="utf-8"?>
<!-- Generator: Adobe Illustrator 17.0.0, SVG Export Plug-In . SVG Version: 6.00 Build 0)  -->
<!DOCTYPE svg PUBLIC "-//W3C//DTD SVG 1.1//EN" "http://www.w3.org/Graphics/SVG/1.1/DTD/svg11.dtd">
<svg version="1.1" id="Layer_1" xmlns="http://www.w3.org/2000/svg" xmlns:xlink="http://www.w3.org/1999/xlink" x="0px" y="0px"
	 width="460.8px" height="460.8px" viewBox="0 0 460.8 460.8" enable-background="new 0 0 460.8 460.8" xml:space="preserve">
<path fill="#FFFFFF" d="M0,0v134.398h134.398V0H0z M96.002,96.002h-57.6v-57.6h57.6V96.002z"/>
<path fill="#FFFFFF" d="M0,326.396V460.8h134.398V326.396H0z M96.002,422.404h-57.6v-57.6h57.6V422.404z"/>
<path fill="#FFFFFF" d="M326.402,0v134.398H460.8V0H326.402z M422.398,96.002h-57.6v-57.6h57.6V96.002z"/>
<polygon fill="#FFFFFF" points="422.398,172.8 422.398,288 326.402,288 326.402,326.396 460.8,326.396 460.8,172.8 "/>
<polygon fill="#FFFFFF" points="326.402,364.804 326.402,460.8 364.798,460.8 364.798,403.2 422.398,403.2 422.398,460.8 
	460.8,460.8 460.8,364.804 "/>
<polygon fill="#FFFFFF" points="172.8,0 172.8,38.402 249.598,38.402 249.598,134.398 288,134.398 288,0 "/>
<polygon fill="#FFFFFF" points="249.598,172.8 249.598,249.604 172.8,249.604 172.8,364.804 249.598,364.804 249.598,460.8 
	288,460.8 288,326.396 211.202,326.396 211.202,288 288,288 288,211.202 326.402,211.202 326.402,249.604 364.798,249.604 
	364.798,172.8 "/>
<rect x="172.8" y="403.2" fill="#FFFFFF" width="38.402" height="57.6"/>
<rect x="76.798" y="249.604" fill="#FFFFFF" width="57.6" height="38.396"/>
<polygon fill="#FFFFFF" points="172.8,76.798 172.8,172.8 0,172.8 0,288 38.402,288 38.402,211.202 211.202,211.202 211.202,76.798 
	"/>
</svg>
