<?xml version="1.0" encoding="utf-8"?>
<!-- Generator: Adobe Illustrator 17.0.0, SVG Export Plug-In . SVG Version: 6.00 Build 0)  -->
<!DOCTYPE svg PUBLIC "-//W3C//DTD SVG 1.1//EN" "http://www.w3.org/Graphics/SVG/1.1/DTD/svg11.dtd">
<svg version="1.1"
	 id="Layer_1" xmlns:rdf="http://www.w3.org/1999/02/22-rdf-syntax-ns#" xmlns:dc="http://purl.org/dc/elements/1.1/" xmlns:cc="http://creativecommons.org/ns#" xmlns:svg="http://www.w3.org/2000/svg" xmlns:inkscape="http://www.inkscape.org/namespaces/inkscape" xmlns:sodipodi="http://sodipodi.sourceforge.net/DTD/sodipodi-0.dtd"
	 xmlns="http://www.w3.org/2000/svg" xmlns:xlink="http://www.w3.org/1999/xlink" x="0px" y="0px" width="729.791px"
	 height="790.43px" viewBox="0 0 729.791 790.43" enable-background="new 0 0 729.791 790.43" xml:space="preserve">
<g transform="translate(0,-1016.3622)">
	<path fill="#FFFFFF" d="M11.39,1405.889c-13.103,13.103-16.331,32.48-9.729,48.706c0.085,0.21,0.219,0.405,0.307,0.614
		c1.033,2.432,2.202,4.809,3.683,7.059c1.63,2.487,3.559,4.848,5.739,7.028l101.831,101.831
		c-27.939,61.439-16.6,136.3,33.852,186.751c64.928,64.928,170.293,65.41,235.395,0.307c30.873-30.873,46.969-70.943,48.614-111.468
		l287.416-287.416c17.273-17.273,17.274-45.58,0-62.854L616.421,1194.37l-94.25-94.25l-70.803-70.803
		c-17.274-17.274-45.58-17.274-62.854,0l-28.972,28.972c-0.997,0.836-2.071,1.519-3.008,2.455L11.39,1405.889z M27.104,1422.154
		l346.832-346.832c8.987-7.534,21.806-7.35,30.291,1.135l77.892,77.892c-2.47,2.979-4.54,5.89-7.581,8.931l-78.168,78.168
		c-30.333,30.333-30.332,79.663,0,109.994c30.333,30.333,79.662,30.333,109.994,0l77.984-77.984l0.491-0.491l0.092-0.092
		c0.021-0.02,0.041-0.041,0.061-0.061c2.797-2.835,4.704-5.644,7.12-8.47l78.721,78.721c8.993,8.993,8.96,22.958-0.031,31.949
		l-241.257,241.257c-4.888-34.467-20.348-67.673-46.772-94.097c-1.051-1.057-2.303-1.892-3.683-2.455
		c-0.01,0.01-0.021,0.02-0.031,0.031c-65.203-61.692-168.279-61.223-232.265,2.762l-0.031-0.031
		c-8.726,8.726-16.186,18.225-22.557,28.204l-97.104-97.104c-2.21-2.21-3.898-4.788-5.003-7.458
		C18.818,1438.126,20.489,1428.769,27.104,1422.154z M399.869,1049.389l4.358-4.358c8.84-8.84,22.588-8.839,31.427,0l66.936,66.936
		c-0.614,6.412-2.958,14.443-7.734,23.693l-74.915-74.915C414.21,1055.014,407.215,1051.35,399.869,1049.389z M42.817,1437.868
		l15.713,15.714l15.714-15.714l-15.714-15.714L42.817,1437.868z M74.244,1406.441l15.713,15.714l15.714-15.714l-15.714-15.713
		L74.244,1406.441z M105.671,1375.014l15.713,15.714l15.714-15.714l-15.714-15.714L105.671,1375.014z M137.098,1343.587
		l15.713,15.714l15.713-15.714l-15.713-15.714L137.098,1343.587z M168.525,1312.16l15.714,15.714l15.713-15.714l-15.713-15.714
		L168.525,1312.16z M199.952,1280.733l15.714,15.713l15.713-15.713l-15.713-15.714L199.952,1280.733z M231.379,1249.306
		l15.714,15.714l15.713-15.714l-15.713-15.714L231.379,1249.306z M262.806,1217.879l15.714,15.714l15.714-15.714l-15.714-15.714
		L262.806,1217.879z M294.233,1186.452l15.714,15.714l15.713-15.714l-15.713-15.713L294.233,1186.452z M325.66,1155.025
		l15.714,15.714l15.714-15.714l-15.714-15.714L325.66,1155.025z M357.087,1123.598l15.713,15.714l15.714-15.714l-15.714-15.714
		L357.087,1123.598z M74.49,1468.988l15.652,15.775l15.867-15.56l-15.652-15.775L74.49,1468.988z M404.35,1170.677l15.836,15.836
		l15.621-15.621l-15.836-15.836L404.35,1170.677z M105.763,1500.569l15.621,15.806l15.867-15.56l-15.621-15.806L105.763,1500.569z
		 M520.175,1129.552l76.358,76.358c-0.962,12.156-7.127,30.767-27.314,51.253l-0.061,0.061l-0.522,0.522l-77.984,77.984
		c-21.899,21.899-56.668,21.9-78.567,0c-21.898-21.898-21.899-56.668,0-78.568l78.168-78.168
		C507.557,1161.69,515.551,1145.038,520.175,1129.552z M162.479,1538.195c56.601-56.601,148.16-56.729,204.582-0.307
		c56.449,56.449,56.294,147.981-0.307,204.582c-56.619,56.619-147.463,56.199-203.968-0.307
		C106.307,1685.684,105.86,1594.814,162.479,1538.195z M429.117,1271.557c-13.652,13.652-13.623,36.158,0.031,49.811
		s36.128,13.652,49.78,0s13.622-36.095-0.031-49.749S442.77,1257.904,429.117,1271.557z M444.831,1287.27
		c5.151-5.151,13.185-5.107,18.353,0.061c5.169,5.17,5.182,13.171,0.031,18.322s-13.183,5.17-18.353,0
		C439.693,1300.486,439.679,1292.421,444.831,1287.27z M177.517,1586.011l15.713,15.714l-23.57,23.57
		c-4.339,4.339-4.339,11.374,0,15.714l47.14,47.14l47.14,47.141c4.339,4.339,11.374,4.339,15.714,0l23.57-23.57l15.713,15.714
		l15.714-15.714l-15.714-15.714l7.703-7.703l6.721-6.721l6.69-6.691c16.09-16.09,13.222-42.757-3.437-59.417
		c-12.794-12.794-31.466-17.385-46.741-11.57c-2.372-8.086-6.911-15.811-13.534-22.435c-8.036-8.036-17.666-13.197-27.621-14.854
		c-9.953-1.656-20.895,0.517-28.511,8.133l-5.616,5.616l-5.616,5.616l-0.031,0.031l-15.713-15.714L177.517,1586.011z
		 M193.231,1633.151l15.713-15.713l31.427,31.427l-15.713,15.714L193.231,1633.151z M224.658,1601.724l0.031-0.031l5.616-5.616
		l5.616-5.616c1.716-1.716,4.494-2.672,9.146-1.903c4.656,0.774,10.538,3.602,15.56,8.624c5.022,5.022,7.88,10.935,8.655,15.591
		c0.774,4.656-0.217,7.399-1.933,9.115l-3.56,3.56l-7.673,7.673l-0.031,0.031L224.658,1601.724z M615.377,1224.754l87.406,87.406
		c8.842,8.842,8.841,22.586,0,31.427l-4.665,4.665c-1.88-7.661-5.616-14.946-11.57-20.9l-81.145-81.145
		C609.868,1238.777,613.17,1231.62,615.377,1224.754z M569.28,1335.792l15.591,15.714l15.898-15.898l-15.652-15.652L569.28,1335.792
		z M240.371,1680.291l15.713-15.714l31.427,31.427l-15.714,15.714L240.371,1680.291z M271.798,1648.864l0.031-0.031l7.673-7.673
		l3.56-3.56l3.161-3.161l6.69-6.691c6.217-6.217,18.533-6.019,27.99,3.437c9.456,9.456,9.654,21.773,3.437,27.99l-6.691,6.691
		l-6.721,6.721l-7.703,7.703L271.798,1648.864z M418.959,1564.558l15.714,15.714l15.713-15.714l-15.713-15.714L418.959,1564.558z
		 M450.385,1533.131l15.714,15.713l15.714-15.713l-15.714-15.714L450.385,1533.131z M481.812,1501.704l15.714,15.714l15.713-15.714
		l-15.713-15.714L481.812,1501.704z M513.239,1470.277l15.714,15.714l15.714-15.714l-15.714-15.714L513.239,1470.277z
		 M544.666,1438.85l15.713,15.714l15.714-15.714l-15.714-15.713L544.666,1438.85z M576.093,1407.423l15.714,15.714l15.714-15.714
		l-15.714-15.714L576.093,1407.423z M607.52,1375.996l15.713,15.714l15.714-15.714l-15.714-15.714L607.52,1375.996z"/>
</g>
</svg>
